<mxfile host="app.diagrams.net" agent="Mozilla/5.0 (Windows NT 10.0; Win64; x64) AppleWebKit/537.36 (KHTML, like Gecko) Chrome/138.0.0.0 Safari/537.36" version="28.0.6">
  <diagram name="Page-1" id="ZS5uqBq5FHEG185RZTOK">
    <mxGraphModel dx="3471" dy="1296" grid="1" gridSize="10" guides="1" tooltips="1" connect="1" arrows="1" fold="1" page="1" pageScale="1" pageWidth="1400" pageHeight="850" math="0" shadow="0">
      <root>
        <mxCell id="0" />
        <mxCell id="1" parent="0" />
        <mxCell id="YE8lJ47Qktl7o4QcjA-D-14" value="" style="group" vertex="1" connectable="0" parent="1">
          <mxGeometry x="490" y="193" width="530" height="463.57" as="geometry" />
        </mxCell>
        <mxCell id="YE8lJ47Qktl7o4QcjA-D-16" value="" style="group" vertex="1" connectable="0" parent="YE8lJ47Qktl7o4QcjA-D-14">
          <mxGeometry y="-50" width="530" height="470" as="geometry" />
        </mxCell>
        <mxCell id="YE8lJ47Qktl7o4QcjA-D-19" value="" style="group" vertex="1" connectable="0" parent="YE8lJ47Qktl7o4QcjA-D-16">
          <mxGeometry x="-25" y="47" width="470" height="470" as="geometry" />
        </mxCell>
        <mxCell id="YE8lJ47Qktl7o4QcjA-D-1" value="" style="ellipse;whiteSpace=wrap;html=1;aspect=fixed;" vertex="1" parent="YE8lJ47Qktl7o4QcjA-D-19">
          <mxGeometry width="470" height="470" as="geometry" />
        </mxCell>
        <mxCell id="YE8lJ47Qktl7o4QcjA-D-2" value="" style="endArrow=none;html=1;rounded=0;entryX=0.958;entryY=0.311;entryDx=0;entryDy=0;entryPerimeter=0;" edge="1" parent="YE8lJ47Qktl7o4QcjA-D-19">
          <mxGeometry width="50" height="50" relative="1" as="geometry">
            <mxPoint x="12.530000000000001" y="209" as="sourcePoint" />
            <mxPoint x="457.47301003344455" y="209.49798076923076" as="targetPoint" />
          </mxGeometry>
        </mxCell>
        <mxCell id="YE8lJ47Qktl7o4QcjA-D-4" value="&lt;font style=&quot;font-size: 50px;&quot;&gt;0&lt;/font&gt;" style="text;html=1;align=center;verticalAlign=middle;whiteSpace=wrap;rounded=0;fontStyle=1" vertex="1" parent="YE8lJ47Qktl7o4QcjA-D-19">
          <mxGeometry x="210" y="127" width="50" height="20" as="geometry" />
        </mxCell>
        <mxCell id="YE8lJ47Qktl7o4QcjA-D-5" value="&lt;font style=&quot;font-size: 40px;&quot;&gt;&lt;b style=&quot;&quot;&gt;LeFern Hotel&lt;br&gt;&lt;br&gt;&lt;/b&gt;&lt;/font&gt;&lt;div&gt;&lt;font style=&quot;font-size: 40px;&quot;&gt;&lt;b style=&quot;&quot;&gt;Booking System&lt;/b&gt;&lt;/font&gt;&lt;/div&gt;" style="text;html=1;align=center;verticalAlign=middle;whiteSpace=wrap;rounded=0;" vertex="1" parent="YE8lJ47Qktl7o4QcjA-D-19">
          <mxGeometry x="41.25" y="237" width="387.5" height="127" as="geometry" />
        </mxCell>
        <mxCell id="YE8lJ47Qktl7o4QcjA-D-21" style="edgeStyle=orthogonalEdgeStyle;rounded=0;orthogonalLoop=1;jettySize=auto;html=1;exitX=0.75;exitY=0;exitDx=0;exitDy=0;strokeWidth=2;" edge="1" parent="1" source="YE8lJ47Qktl7o4QcjA-D-17">
          <mxGeometry relative="1" as="geometry">
            <mxPoint x="480" y="350" as="targetPoint" />
            <Array as="points">
              <mxPoint x="108" y="350" />
            </Array>
          </mxGeometry>
        </mxCell>
        <mxCell id="YE8lJ47Qktl7o4QcjA-D-22" value="&lt;font style=&quot;font-size: 25px;&quot;&gt;Customer Information&lt;/font&gt;" style="edgeLabel;html=1;align=center;verticalAlign=middle;resizable=0;points=[];" vertex="1" connectable="0" parent="YE8lJ47Qktl7o4QcjA-D-21">
          <mxGeometry x="0.4387" y="-4" relative="1" as="geometry">
            <mxPoint x="-20" y="-23" as="offset" />
          </mxGeometry>
        </mxCell>
        <mxCell id="YE8lJ47Qktl7o4QcjA-D-23" style="edgeStyle=orthogonalEdgeStyle;rounded=0;orthogonalLoop=1;jettySize=auto;html=1;exitX=0.5;exitY=0;exitDx=0;exitDy=0;strokeWidth=2;" edge="1" parent="1" source="YE8lJ47Qktl7o4QcjA-D-17">
          <mxGeometry relative="1" as="geometry">
            <mxPoint x="510" y="280" as="targetPoint" />
            <Array as="points">
              <mxPoint x="25" y="280" />
            </Array>
          </mxGeometry>
        </mxCell>
        <mxCell id="YE8lJ47Qktl7o4QcjA-D-17" value="&lt;b&gt;&lt;font style=&quot;font-size: 50px;&quot;&gt;CUSTOMER&lt;/font&gt;&lt;/b&gt;" style="rounded=0;whiteSpace=wrap;html=1;" vertex="1" parent="1">
          <mxGeometry x="-140" y="380" width="330" height="60" as="geometry" />
        </mxCell>
        <mxCell id="YE8lJ47Qktl7o4QcjA-D-34" style="edgeStyle=orthogonalEdgeStyle;rounded=0;orthogonalLoop=1;jettySize=auto;html=1;exitX=0.5;exitY=1;exitDx=0;exitDy=0;entryX=1;entryY=1;entryDx=0;entryDy=0;strokeWidth=2;" edge="1" parent="1" source="YE8lJ47Qktl7o4QcjA-D-20" target="YE8lJ47Qktl7o4QcjA-D-1">
          <mxGeometry relative="1" as="geometry" />
        </mxCell>
        <mxCell id="YE8lJ47Qktl7o4QcjA-D-20" value="&lt;b&gt;&lt;font style=&quot;font-size: 50px;&quot;&gt;RECEPTIONIST&lt;/font&gt;&lt;/b&gt;" style="rounded=0;whiteSpace=wrap;html=1;" vertex="1" parent="1">
          <mxGeometry x="1240" y="380" width="410" height="60" as="geometry" />
        </mxCell>
        <mxCell id="YE8lJ47Qktl7o4QcjA-D-24" value="&lt;font style=&quot;font-size: 25px;&quot;&gt;Booking Details&lt;/font&gt;" style="text;html=1;align=center;verticalAlign=middle;resizable=0;points=[];autosize=1;strokeColor=none;fillColor=none;" vertex="1" parent="1">
          <mxGeometry x="230" y="240" width="200" height="40" as="geometry" />
        </mxCell>
        <mxCell id="YE8lJ47Qktl7o4QcjA-D-28" style="edgeStyle=orthogonalEdgeStyle;rounded=0;orthogonalLoop=1;jettySize=auto;html=1;exitX=0.894;exitY=0.185;exitDx=0;exitDy=0;entryX=0.5;entryY=0;entryDx=0;entryDy=0;exitPerimeter=0;strokeWidth=2;" edge="1" parent="1" source="YE8lJ47Qktl7o4QcjA-D-1" target="YE8lJ47Qktl7o4QcjA-D-20">
          <mxGeometry relative="1" as="geometry">
            <Array as="points">
              <mxPoint x="1445" y="277" />
            </Array>
          </mxGeometry>
        </mxCell>
        <mxCell id="YE8lJ47Qktl7o4QcjA-D-29" value="&lt;font style=&quot;font-size: 25px;&quot;&gt;Booking Details&lt;/font&gt;" style="edgeLabel;html=1;align=center;verticalAlign=middle;resizable=0;points=[];" vertex="1" connectable="0" parent="YE8lJ47Qktl7o4QcjA-D-28">
          <mxGeometry x="-0.3626" y="5" relative="1" as="geometry">
            <mxPoint x="92" y="-12" as="offset" />
          </mxGeometry>
        </mxCell>
        <mxCell id="YE8lJ47Qktl7o4QcjA-D-31" style="edgeStyle=orthogonalEdgeStyle;rounded=0;orthogonalLoop=1;jettySize=auto;html=1;entryX=0.25;entryY=0;entryDx=0;entryDy=0;strokeWidth=2;" edge="1" parent="1" target="YE8lJ47Qktl7o4QcjA-D-20">
          <mxGeometry relative="1" as="geometry">
            <mxPoint x="920" y="350" as="sourcePoint" />
          </mxGeometry>
        </mxCell>
        <mxCell id="YE8lJ47Qktl7o4QcjA-D-32" value="&lt;font style=&quot;font-size: 25px;&quot;&gt;Customer Information&lt;/font&gt;" style="edgeLabel;html=1;align=center;verticalAlign=middle;resizable=0;points=[];" vertex="1" connectable="0" parent="YE8lJ47Qktl7o4QcjA-D-31">
          <mxGeometry x="-0.1828" y="3" relative="1" as="geometry">
            <mxPoint x="48" y="-20" as="offset" />
          </mxGeometry>
        </mxCell>
        <mxCell id="YE8lJ47Qktl7o4QcjA-D-35" value="&lt;font style=&quot;font-size: 25px;&quot;&gt;Booking Confirmation&lt;/font&gt;" style="text;html=1;align=center;verticalAlign=middle;resizable=0;points=[];autosize=1;strokeColor=none;fillColor=none;" vertex="1" parent="1">
          <mxGeometry x="1040" y="553" width="260" height="40" as="geometry" />
        </mxCell>
        <mxCell id="YE8lJ47Qktl7o4QcjA-D-36" style="edgeStyle=orthogonalEdgeStyle;rounded=0;orthogonalLoop=1;jettySize=auto;html=1;exitX=0;exitY=1;exitDx=0;exitDy=0;entryX=0.5;entryY=1;entryDx=0;entryDy=0;strokeWidth=2;" edge="1" parent="1" source="YE8lJ47Qktl7o4QcjA-D-1" target="YE8lJ47Qktl7o4QcjA-D-17">
          <mxGeometry relative="1" as="geometry" />
        </mxCell>
        <mxCell id="YE8lJ47Qktl7o4QcjA-D-37" value="&lt;font style=&quot;font-size: 25px;&quot;&gt;Booking Confirmation&lt;/font&gt;" style="text;html=1;align=center;verticalAlign=middle;resizable=0;points=[];autosize=1;strokeColor=none;fillColor=none;" vertex="1" parent="1">
          <mxGeometry x="140" y="553" width="260" height="40" as="geometry" />
        </mxCell>
      </root>
    </mxGraphModel>
  </diagram>
</mxfile>
